<?xml version="1.0" encoding="UTF-8"?>
<svg version="1.1" xmlns="http://www.w3.org/2000/svg" width="2048" height="431">
<path d="M0 0 C1.49065649 -0.01151524 2.98127189 -0.03196028 4.47167969 -0.06152344 C6.63171244 -0.10435559 8.79052219 -0.12038926 10.95092773 -0.13061523 C12.88609253 -0.15248901 12.88609253 -0.15248901 14.86035156 -0.17480469 C21.10590335 0.64714699 25.42763995 4.60505121 29.43139648 9.29516602 C30.4508239 12.9983277 30.561067 16.53382437 30.57183838 20.36082458 C30.57754852 21.57907928 30.58325867 22.79733398 30.58914185 24.05250549 C30.59038701 25.39437856 30.59151215 26.73625174 30.5925293 28.078125 C30.59716088 29.49768197 30.60218599 30.9172377 30.60757446 32.33679199 C30.62066454 36.18594911 30.62713635 40.03508882 30.63158512 43.88426471 C30.63452029 46.29028287 30.63862586 48.69629631 30.64308929 51.10231209 C30.656753 58.634008 30.66642613 66.16569307 30.67029119 73.69740051 C30.67477448 82.38524665 30.69233961 91.07293566 30.72129178 99.76073402 C30.74291146 106.48189536 30.75299556 113.20301248 30.7543323 119.92420822 C30.75537979 123.93626807 30.76127591 127.94817999 30.77915192 131.96020317 C30.79563845 135.73347325 30.79778541 139.50648424 30.78901291 143.27977753 C30.78824294 144.66245531 30.79258001 146.04514707 30.80247116 147.42778969 C30.81520673 149.31932523 30.8075163 151.21096506 30.79888916 153.1025238 C30.80035572 154.15977881 30.80182228 155.21703382 30.80333328 156.30632687 C30.36339532 159.84161518 29.24648074 162.2459086 27.43139648 165.29516602 C25.34545898 166.69360352 25.34545898 166.69360352 23.05639648 167.67016602 C18.09611375 170.210996 15.40598984 173.05162865 13.43139648 178.29516602 C12.12417004 184.37755022 13.64456525 189.20191169 16.88842773 194.40844727 C19.85532119 198.03631952 23.18364816 199.06696822 27.73999023 199.52954102 C32.0263306 199.67030753 34.60877133 199.24929822 38.43139648 197.29516602 C39.42139648 197.29516602 40.41139648 197.29516602 41.43139648 197.29516602 C41.70209961 196.73055664 41.97280273 196.16594727 42.25170898 195.58422852 C43.48777611 193.18576715 44.84315589 190.93705171 46.30639648 188.67016602 C46.79881836 187.89415039 47.29124023 187.11813477 47.79858398 186.31860352 C49.67107635 183.99814647 50.6454869 183.33629332 53.43139648 182.29516602 C56.04408433 182.10378096 58.54915535 182.02097152 61.16110229 182.0344696 C61.94432865 182.03064406 62.72755501 182.02681851 63.5345155 182.02287704 C66.16150615 182.01255035 68.7882781 182.01653855 71.4152832 182.02050781 C73.29774173 182.01616113 75.18019848 182.01097813 77.06265259 182.00502014 C82.1783778 181.99161353 87.29402922 181.99105337 92.40976858 181.99358344 C96.67920374 181.99465213 100.9486239 181.98977235 105.21805584 181.98497802 C115.29032009 181.97387686 125.36254705 181.97344871 135.43481445 181.97949219 C145.82764055 181.98553212 156.22033127 181.97322183 166.61313426 181.95192212 C175.53383812 181.93431127 184.45449886 181.92830399 193.37521946 181.93155986 C198.7040704 181.93337384 204.03282479 181.93072512 209.36166 181.91684532 C214.37346039 181.90428021 219.38504967 181.90619866 224.39684677 181.91925621 C226.23587108 181.92162449 228.07491019 181.91887831 229.91391754 181.91063309 C232.42543164 181.90018505 234.93623487 181.90825047 237.44772339 181.92094421 C238.17457993 181.91356993 238.90143648 181.90619564 239.65031898 181.8985979 C244.30152635 181.94801489 247.4883372 182.82699891 251.43139648 185.29516602 C253.30249023 187.88891602 253.30249023 187.88891602 254.86889648 190.79516602 C257.56124388 195.44283492 257.56124388 195.44283492 261.80639648 198.48266602 C268.13930795 199.90211169 273.02356454 200.47125817 278.80639648 197.10766602 C282.6634732 194.35480212 284.78234039 191.95782922 285.92749023 187.26000977 C286.86354945 181.63400435 286.18815452 177.29817134 283.43139648 172.29516602 C281.38333008 169.70094857 280.09946943 168.53498707 276.99389648 167.42016602 C273.28770315 165.79305675 271.82512841 163.55330114 269.43139648 160.29516602 C268.38278675 157.14933682 268.30052397 154.93795094 268.29095459 151.6353302 C268.28524445 150.45637177 268.2795343 149.27741333 268.27365112 148.06272888 C268.27253326 146.76762894 268.27141541 145.47252899 268.27026367 144.13818359 C268.26563467 142.76157498 268.2606099 141.38496765 268.25521851 140.00836182 C268.24209765 136.2663866 268.2356498 132.52442933 268.23120785 128.7824347 C268.22827572 126.44308052 268.22417058 124.10373122 268.21970367 121.7643795 C268.20602761 114.44090765 268.19636232 107.11744699 268.19250178 99.79396325 C268.18802504 91.34835711 268.1704955 82.90291312 268.14150119 74.45735627 C268.11985527 67.92473738 268.1097959 61.39216401 268.10846066 54.85950965 C268.10741442 50.96025494 268.10154572 47.06115266 268.08364105 43.16193581 C268.06711063 39.49046012 268.06502877 35.81925059 268.07378006 32.14775085 C268.07491243 30.16689614 268.06123224 28.18605007 268.04702759 26.20524597 C268.08232406 18.64382237 268.22970516 11.991376 273.40405273 6.01782227 C274.43852539 5.19604492 274.43852539 5.19604492 275.49389648 4.35766602 C276.18612305 3.79176758 276.87834961 3.22586914 277.59155273 2.64282227 C282.67390748 -1.07992166 289.11944793 -0.08454128 295.18701172 -0.16479492 C296.71272388 -0.19127569 298.23826148 -0.23206197 299.76318359 -0.2878418 C308.15248196 -0.59081657 315.04255787 -0.73305609 321.76513672 5.00024414 C327.51190706 12.91520988 326.85581332 21.71791417 326.81234741 31.04724121 C326.81580631 32.66124427 326.82057243 34.27524497 326.82652915 35.88924074 C326.83903697 40.31380097 326.83286974 44.73816673 326.82357049 49.16272759 C326.81677947 53.93853072 326.8272615 58.71430054 326.83551025 63.49009705 C326.84884919 72.84170235 326.84596912 82.19323542 326.83727233 91.54484355 C326.83049684 99.14518188 326.82957849 106.74549997 326.83284378 114.34584045 C326.83330348 115.427613 326.83376318 116.50938554 326.83423681 117.62393907 C326.83519599 119.82154795 326.83616863 122.01915683 326.83715458 124.2167657 C326.84570895 144.8231288 326.8358736 165.42945185 326.81975348 186.03580838 C326.80635027 203.71651926 326.80867835 221.39717105 326.82250977 239.07788086 C326.83856474 259.61057556 326.84488497 280.14323517 326.83567297 300.67593527 C326.83471733 302.86545403 326.83377422 305.0549728 326.83284378 307.24449158 C326.83238095 308.32177309 326.83191813 309.39905461 326.83144128 310.50898102 C326.82885114 318.10007652 326.83322289 325.69114977 326.84028244 333.28224182 C326.84869671 342.5334059 326.8464188 351.78449361 326.83044021 361.03564894 C326.82255655 365.75560943 326.81946756 370.4754426 326.82938766 375.19540215 C326.83833302 379.51694501 326.8334043 383.83824263 326.81745501 388.15976328 C326.81410654 389.72223781 326.81580277 391.28473309 326.82308237 392.84719425 C326.8961758 409.84044976 326.8961758 409.84044976 321.24389648 417.10766602 C313.89102393 422.82656689 306.39490749 422.76163041 297.43139648 422.67016602 C296.29444336 422.68176758 295.15749023 422.69336914 293.98608398 422.70532227 C286.69905486 422.67996138 280.32693642 422.40106948 274.40795898 417.68188477 C273.96194336 417.12114258 273.51592773 416.56040039 273.05639648 415.98266602 C272.59491211 415.4296582 272.13342773 414.87665039 271.65795898 414.30688477 C268.89664096 409.77797145 268.18087384 405.34244175 268.17070007 400.10925293 C268.16361526 398.88962357 268.15653046 397.6699942 268.14923096 396.41340637 C268.15152439 395.07516442 268.15403404 393.73692283 268.15673828 392.39868164 C268.15238761 390.97897575 268.14720327 389.55927222 268.14125061 388.13957214 C268.12788924 384.2945793 268.12727862 380.44968492 268.12981391 376.60467339 C268.13088532 373.39140043 268.12599603 370.17814726 268.12120849 366.96487856 C268.11012374 359.38371576 268.10967043 351.80260252 268.11572266 344.22143555 C268.12176576 336.40630331 268.10944058 328.59135096 268.08815259 320.77624941 C268.07053023 314.05930577 268.06453613 307.34241937 268.06779033 300.62545347 C268.06960193 296.61677372 268.06697911 292.60822237 268.05307579 288.5995636 C268.04049127 284.83036788 268.04244726 281.06145259 268.05548668 277.29226112 C268.05785047 275.91120114 268.05512482 274.53012138 268.04686356 273.14908409 C268.03637896 271.25977506 268.04630893 269.37038598 268.05717468 267.4810791 C268.05692307 265.89714481 268.05692307 265.89714481 268.05666637 264.28121185 C268.62825711 259.72647744 270.23188341 256.39186368 273.61889648 253.29516602 C275.21597667 252.15946455 276.82386954 251.03779426 278.46264648 249.96313477 C282.03188582 247.51251573 284.1142496 245.9675174 285.99389648 241.98266602 C286.6453834 236.49156203 286.37053011 231.72586481 284.36889648 226.54516602 C281.04124652 222.68079831 277.26184329 219.86717269 272.18920898 218.84204102 C266.67204458 218.57477354 261.71444904 219.70322173 257.43139648 223.29516602 C255.74614212 225.77634775 254.35544259 228.25637515 253.04858398 230.95532227 C250.88483772 234.08595998 248.95345585 234.8659108 245.43139648 236.29516602 C242.70706838 236.57280483 240.21763276 236.70132832 237.49914551 236.67611694 C236.71829385 236.68079692 235.9374422 236.68547689 235.13292837 236.69029868 C232.52586291 236.70223021 229.91932489 236.69279879 227.31225586 236.68334961 C225.43935337 236.68741613 223.56645329 236.69275846 221.69355774 236.69927979 C216.61303379 236.71294957 211.53269273 236.70765609 206.4521656 236.69814253 C201.1338362 236.69054422 195.8155224 236.69759202 190.49719238 236.70230103 C181.56621491 236.70775807 172.63531187 236.70056828 163.7043457 236.6862793 C153.38077056 236.66995291 143.05737316 236.67524145 132.73380232 236.69175851 C123.8682527 236.70537481 115.00275658 236.70729233 106.13719988 236.69944251 C100.84303912 236.6947668 95.5489619 236.69413838 90.25480652 236.70405197 C85.27743908 236.71272141 80.3003007 236.70670004 75.32295799 236.6893692 C73.49683703 236.68540425 71.67069678 236.68653854 69.84458351 236.6931572 C67.3506784 236.70136248 64.85750597 236.69106368 62.36364746 236.67611694 C61.28124542 236.68615519 61.28124542 236.68615519 60.17697668 236.69639623 C55.53914843 236.64253011 52.37236043 235.73450515 48.43139648 233.29516602 C46.56030273 230.95532227 46.56030273 230.95532227 44.99389648 228.35766602 C41.84420713 223.63657803 39.76712822 221.31906426 34.43139648 219.29516602 C28.58174002 218.42437653 24.57932023 219.28174724 19.43139648 222.29516602 C18.77139648 222.29516602 18.11139648 222.29516602 17.43139648 222.29516602 C17.14264648 223.05829102 16.85389648 223.82141602 16.55639648 224.60766602 C15.43139648 227.29516602 15.43139648 227.29516602 13.43139648 230.29516602 C12.40860526 236.35654977 13.13268263 241.4318064 16.66186523 246.48657227 C19.43378024 249.31967744 22.69547411 251.02441593 26.22436523 252.77563477 C29.03356116 254.70975373 29.41508344 256.06395889 30.43139648 259.29516602 C30.68307877 262.20501614 30.68307877 262.20501614 30.68536377 265.47471619 C30.69100342 266.71821335 30.69664307 267.96171051 30.70245361 269.2428894 C30.69856535 270.61309873 30.69446903 271.98330748 30.69018555 273.35351562 C30.69289688 274.80262935 30.69645861 276.2517417 30.70080566 277.70085144 C30.70991582 281.63061939 30.70639087 285.56028222 30.70004749 289.49005198 C30.69497943 293.60588407 30.69968128 297.72170723 30.70281982 301.83753967 C30.70645752 308.75010797 30.70166594 315.66263351 30.69213867 322.57519531 C30.6812588 330.56125058 30.68477708 338.54720369 30.69579148 346.53325647 C30.70487508 353.39454965 30.70614426 360.25581211 30.70091414 367.11710936 C30.69779979 371.21296173 30.69737032 375.30876613 30.70398712 379.4046154 C30.7097754 383.25664983 30.70573662 387.10855292 30.69419861 390.9605732 C30.69155976 392.37226773 30.69230386 393.78397337 30.69672394 395.19566345 C30.70221131 397.12664895 30.69410152 399.05765868 30.68536377 400.9886322 C30.68460972 402.06801024 30.68385567 403.14738829 30.68307877 404.25947475 C30.17984541 410.32927467 28.0808616 415.26983046 23.43139648 419.29516602 C16.35832976 422.79028798 9.72342272 422.77929947 1.93139648 422.73266602 C0.74674805 422.75264648 -0.43790039 422.77262695 -1.65844727 422.79321289 C-10.30654843 422.78839232 -16.34531205 421.64216829 -22.74294949 415.64413643 C-27.45975167 409.92575401 -26.38328845 402.31361914 -26.31031799 395.30148315 C-26.31508454 393.64907576 -26.32247761 391.99667421 -26.33226722 390.34428895 C-26.35149482 385.80884223 -26.33331515 381.27419979 -26.30897439 376.73880601 C-26.28923189 371.84578285 -26.30409118 366.95284906 -26.31462097 362.05981445 C-26.32974426 352.47704042 -26.31282628 342.89457703 -26.28507007 333.31184159 C-26.25391931 322.15629969 -26.25412858 311.00082498 -26.25558781 299.84524776 C-26.25708967 279.94453641 -26.22960396 260.0439697 -26.18603516 240.14331055 C-26.14376149 220.82427333 -26.12252333 201.5053634 -26.12451172 182.1862793 C-26.12463159 180.99614715 -26.12475146 179.806015 -26.12487496 178.57981823 C-26.12499602 177.39176064 -26.12511708 176.20370304 -26.12524182 174.9796437 C-26.12731039 152.99565121 -26.10964809 131.01171289 -26.08278217 109.02773794 C-26.0737268 101.24789974 -26.07054275 93.46807149 -26.06918526 85.68822861 C-26.06714056 76.21149706 -26.05377022 66.73485682 -26.02618683 57.25816403 C-26.01231984 52.4211276 -26.00320113 47.58420808 -26.00696945 42.74715042 C-26.01024971 38.32208588 -25.99972967 33.89728011 -25.97802388 29.47226955 C-25.97257533 27.86877575 -25.97220136 26.2652553 -25.97732574 24.66176043 C-25.98350842 22.48679846 -25.97135167 20.31268797 -25.95450687 18.13780022 C-25.9523936 16.92838827 -25.95028032 15.71897632 -25.94810301 14.47291553 C-25.37819127 9.70074381 -23.27703664 6.51963842 -19.56860352 3.54516602 C-13.66909914 -0.87946226 -7.05969371 0.03799286 0 0 Z " fill="#9FF4A3" transform="translate(25.568603515625,-0.295166015625)"/>
<path d="M0 0 C1.09482193 -0.00442612 1.09482193 -0.00442612 2.21176147 -0.00894165 C14.20496735 -0.01993631 25.55986534 1.02717948 37.26269531 3.81298828 C39.06909823 4.24016123 40.88921778 4.60860582 42.7109375 4.96484375 C56.76133931 7.90965399 70.31885376 14.67942908 82.375 22.3125 C83.16648437 22.78816406 83.95796875 23.26382813 84.7734375 23.75390625 C88.04076117 25.72963446 90.67891822 27.60974475 93.375 30.3125 C95.73021543 32.13891059 98.11784781 33.91604742 100.51171875 35.69140625 C101.43404297 36.49384766 101.43404297 36.49384766 102.375 37.3125 C102.375 37.9725 102.375 38.6325 102.375 39.3125 C102.94476562 39.54582031 103.51453125 39.77914062 104.1015625 40.01953125 C106.92273872 41.62401463 108.61739143 43.55685369 110.75 46 C111.53117187 46.89203125 112.31234375 47.7840625 113.1171875 48.703125 C113.86226562 49.56421875 114.60734375 50.4253125 115.375 51.3125 C115.99632812 52.00859375 116.61765625 52.7046875 117.2578125 53.421875 C119.55848296 56.02263291 121.26546542 57.98389627 122.375 61.3125 C123.70693351 62.64723169 125.04044957 63.98038488 126.375 65.3125 C135.21734869 78.34443772 141.47053885 93.43172879 146.375 108.3125 C146.78363281 109.44816406 147.19226562 110.58382812 147.61328125 111.75390625 C154.02631443 130.47678639 157.49795327 151.19659043 157.625 171 C157.6559375 172.22299805 157.6559375 172.22299805 157.6875 173.47070312 C157.73460459 180.75424978 155.52160627 186.02293245 150.375 191.3125 C144.82548635 194.24739062 140.36016318 194.74468067 134.14561462 194.70018005 C133.23731842 194.70556559 132.32902222 194.71095113 131.39320189 194.71649987 C128.36087225 194.73076534 125.32898 194.72367919 122.29663086 194.71655273 C120.11816559 194.72225694 117.9397033 194.72922139 115.76124573 194.73735046 C109.85231179 194.75528891 103.9435263 194.75411245 98.03457332 194.74840808 C93.10140016 194.74531801 88.16825559 194.7514065 83.2350865 194.75744683 C71.5993271 194.77149198 59.96364112 194.7699301 48.32788086 194.75854492 C36.32115682 194.74705645 24.31469023 194.76115173 12.30799192 194.7879414 C1.99869682 194.81008307 -8.31052814 194.81673944 -18.61984533 194.81086498 C-24.77697847 194.80749143 -30.93396846 194.80993738 -37.09108162 194.82711601 C-42.87859833 194.8425591 -48.66578363 194.83865867 -54.45328712 194.81981087 C-56.57773525 194.81611807 -58.70220779 194.81925346 -60.82663345 194.82969666 C-63.72567257 194.84286037 -66.62360695 194.83139986 -69.52259827 194.81370544 C-70.3641369 194.82331045 -71.20567554 194.83291546 -72.07271534 194.84281152 C-77.37659138 194.77615651 -80.42385755 193.84634766 -84.625 190.3125 C-85.98828125 187.9453125 -85.98828125 187.9453125 -86.9375 185.4375 C-89.55285 179.78901246 -92.86940804 176.71222564 -98.625 174.3125 C-103.20683831 173.33177207 -107.15098472 173.78277837 -111.375 175.8125 C-115.3548722 178.45647104 -117.87003524 181.8899888 -119.625 186.3125 C-120.65772155 192.12524698 -119.61281492 196.20831618 -116.625 201.3125 C-116.625 201.9725 -116.625 202.6325 -116.625 203.3125 C-115.8825 203.60125 -115.14 203.89 -114.375 204.1875 C-111.625 205.3125 -111.625 205.3125 -109.76171875 206.3359375 C-107.36340619 207.43205842 -105.29615361 207.72486224 -102.6875 208.0625 C-98.6086719 208.85909932 -96.12295283 209.77487487 -93.63671875 213.3515625 C-91.94843536 216.62383378 -90.76175683 220.03675574 -89.58203125 223.51953125 C-88.18919522 227.58433844 -86.48984149 231.44443656 -84.625 235.3125 C-84.22925781 236.14136719 -83.83351563 236.97023438 -83.42578125 237.82421875 C-71.25078667 261.72069808 -50.20819067 278.77515474 -24.875 287.0546875 C-0.05137489 294.68162419 27.23558407 290.68638721 50.37109375 279.91796875 C54.86023175 277.53335076 58.53796027 274.62630704 62.375 271.3125 C63.15230469 270.86777344 63.92960937 270.42304688 64.73046875 269.96484375 C71.63778604 265.6490458 77.063492 259.13905434 81.375 252.3125 C82.035 252.3125 82.695 252.3125 83.375 252.3125 C83.52195312 251.24708984 83.52195312 251.24708984 83.671875 250.16015625 C84.48491306 246.86735211 85.79955626 244.60324793 87.625 241.75 C88.20765625 240.82058594 88.7903125 239.89117187 89.390625 238.93359375 C92.9346133 234.2524596 96.66428207 231.65619834 102.375 230.3125 C109.40293016 229.80825389 115.14514177 231.43415763 121.8125 233.5625 C122.79798828 233.86285156 123.78347656 234.16320312 124.79882812 234.47265625 C142.25182997 239.90864755 142.25182997 239.90864755 145.875 245.375 C146.3390625 246.04660156 146.803125 246.71820313 147.28125 247.41015625 C150.17511168 252.44340852 150.30733637 257.69864486 149.375 263.3125 C141.4360084 283.93249366 123.3004326 304.90208435 104.375 316.3125 C103.715 316.3125 103.055 316.3125 102.375 316.3125 C102.375 316.9725 102.375 317.6325 102.375 318.3125 C99.23263504 320.06878069 96.08549303 321.81633026 92.9375 323.5625 C92.05900391 324.05363281 91.18050781 324.54476563 90.27539062 325.05078125 C68.06472652 337.34450677 42.46322958 345.40059202 16.97265625 345.515625 C15.97729355 345.52132507 14.98193085 345.52702515 13.95640564 345.53289795 C11.85270234 345.54231486 9.7489845 345.54886872 7.64526367 345.55273438 C4.47872994 345.56237448 1.31286432 345.59340285 -1.85351562 345.625 C-13.5026301 345.68569514 -24.28190787 345.06353428 -35.625 342.3125 C-36.90898682 342.01206787 -38.19297363 341.71163574 -39.51586914 341.40209961 C-70.91648005 333.83523668 -96.58502608 316.58627715 -118.4375 293.1875 C-118.93958984 292.66285156 -119.44167969 292.13820313 -119.95898438 291.59765625 C-123.625 287.65731293 -123.625 287.65731293 -123.625 284.3125 C-124.615 283.9825 -125.605 283.6525 -126.625 283.3125 C-129.62419447 279.20273906 -132.09972955 274.72691271 -134.625 270.3125 C-135.14682861 269.40081055 -135.14682861 269.40081055 -135.67919922 268.47070312 C-148.25505629 246.24801934 -154.85330204 222.62770949 -157.625 197.3125 C-157.75648437 196.14589844 -157.88796875 194.97929687 -158.0234375 193.77734375 C-159.57148265 177.22999626 -158.60767418 160.77184283 -156.625 144.3125 C-156.53379883 143.51875977 -156.44259766 142.72501953 -156.34863281 141.90722656 C-153.54175045 118.33926342 -145.56064814 95.78831017 -133.625 75.3125 C-133.18800781 74.549375 -132.75101563 73.78625 -132.30078125 73 C-130.04462917 69.38174212 -127.57182758 65.94579149 -125.0625 62.5 C-124.3209668 61.46069336 -124.3209668 61.46069336 -123.56445312 60.40039062 C-122.30196111 58.66638604 -120.96876069 56.98431494 -119.625 55.3125 C-118.965 55.3125 -118.305 55.3125 -117.625 55.3125 C-117.563125 54.755625 -117.50125 54.19875 -117.4375 53.625 C-115.96784988 49.44214965 -112.47753985 46.97789695 -109.0625 44.3125 C-106.56008382 42.40856707 -106.56008382 42.40856707 -104.7734375 39.9375 C-85.48685288 16.37280025 -47.08011664 3.73099156 -17.98925781 0.48022461 C-12.00182345 0.05546548 -5.9999572 0.02131438 0 0 Z M-51.625 68.3125 C-52.30046875 68.7971875 -52.9759375 69.281875 -53.671875 69.78125 C-65.3587274 78.29725097 -73.84296531 88.1502915 -81.625 100.3125 C-82.05554687 100.94542969 -82.48609375 101.57835937 -82.9296875 102.23046875 C-86.13430965 107.05730646 -88.26585001 112.06671646 -90.31640625 117.48046875 C-91.76726299 120.62038258 -93.18856308 122.85018941 -95.625 125.3125 C-98.359375 126.28125 -98.359375 126.28125 -101.375 126.8125 C-108.19742103 128.30360301 -113.50464289 130.23456226 -117.5625 136.125 C-119.57705204 142.16865611 -120.40144659 146.15484854 -117.9375 152.0625 C-115.6358874 156.62644853 -113.5765629 159.44513871 -108.8125 161.5625 C-102.27920966 163.09974478 -97.5244909 162.58999494 -91.625 159.3125 C-87.79005058 155.38401523 -84.97322427 150.90373208 -82.0546875 146.265625 C-80.625 144.3125 -80.625 144.3125 -77.625 142.3125 C-74.79948521 142.05523109 -74.79948521 142.05523109 -71.29286194 142.04507446 C-70.64791965 142.04054335 -70.00297737 142.03601224 -69.33849138 142.03134382 C-67.1735865 142.01866563 -65.00893208 142.02032234 -62.84399414 142.02197266 C-61.29340795 142.01598957 -59.74282475 142.00918453 -58.19224548 142.00161743 C-53.97739706 141.9839289 -49.7626298 141.97926089 -45.54774785 141.97798586 C-42.03122613 141.97608819 -38.51472337 141.96873228 -34.99820894 141.96164167 C-26.70330467 141.94534967 -18.40844382 141.9404735 -10.11352539 141.94189453 C-1.55141199 141.94309655 7.01044957 141.92198464 15.57249922 141.8904072 C22.91949494 141.86427466 30.26640825 141.85352594 37.61345011 141.85480535 C42.00332999 141.85531583 46.39298608 141.84958541 50.78281975 141.82844925 C54.91069468 141.80911728 59.03813116 141.80890748 63.16602135 141.82348251 C64.68176665 141.82557794 66.19753903 141.82082615 67.71323776 141.8087616 C69.78130336 141.7933653 71.84784641 141.80257721 73.9158783 141.81802368 C75.65222235 141.81638938 75.65222235 141.81638938 77.42364407 141.81472206 C81.01435245 142.42033367 82.13736603 143.50485025 84.375 146.3125 C85.68359375 148.49609375 85.68359375 148.49609375 86.8125 150.75 C89.5857564 155.87504526 92.11572493 159.35665286 97.625 161.6875 C103.15165169 162.60860862 107.95193672 162.35882278 113.125 160.125 C117.96433135 156.22664975 120.51886464 153.52152956 121.3125 147.3125 C121.62639692 140.95846528 120.23387569 136.46659178 115.9140625 131.62890625 C111.87775408 128.17653077 106.7114389 127.35774388 101.625 126.4375 C98.53025519 125.77396123 97.4976106 125.4218554 95.0625 123.25 C93.31680794 120.2112027 91.88556793 117.16302487 90.5234375 113.9375 C88.3476702 108.9643176 85.83140869 104.15162512 83.375 99.3125 C82.715 99.3125 82.055 99.3125 81.375 99.3125 C81.10300781 98.73242188 80.83101562 98.15234375 80.55078125 97.5546875 C78.59450529 93.82411474 75.95047536 90.63214537 73.375 87.3125 C72.653125 86.343125 71.93125 85.37375 71.1875 84.375 C67.24928354 79.69275568 62.15230099 76.08766601 57.375 72.3125 C56.53066406 71.61253906 55.68632813 70.91257812 54.81640625 70.19140625 C47.67801131 64.6976975 38.66370695 61.65377508 30.375 58.3125 C29.62734375 57.96832031 28.8796875 57.62414062 28.109375 57.26953125 C3.03731059 48.49430871 -30.28648096 52.34933308 -51.625 68.3125 Z " fill="#9FF4A3" transform="translate(1199.625,85.6875)"/>
<path d="M0 0 C1.87558594 0.43505859 1.87558594 0.43505859 3.7890625 0.87890625 C19.16691558 4.68357176 33.67580765 9.78852634 46 20 C47.12728516 20.65935547 47.12728516 20.65935547 48.27734375 21.33203125 C57.90564877 27.23057679 65.21012714 35.08829187 72 44 C72.68320312 44.83917969 73.36640625 45.67835938 74.0703125 46.54296875 C84.14344973 59.36888639 89.05732448 74.43350024 93 90 C93.26831953 90.99175143 93.26831953 90.99175143 93.54205966 92.00353825 C94.32879804 95.4334459 94.37748433 98.94341073 94.54669189 102.44796753 C94.58862081 103.28717235 94.63054972 104.12637718 94.67374921 104.99101245 C95.12091271 114.60256884 95.1985655 124.21218659 95.25292969 133.83251953 C95.267466 135.84040058 95.28234345 137.84827917 95.29753113 139.8561554 C95.33694374 145.24593503 95.3705301 150.635734 95.40211773 156.02556467 C95.42197747 159.4002254 95.44279908 162.77487898 95.46387482 166.14953232 C95.52957486 176.73154122 95.59146271 187.31356269 95.64805388 197.89562428 C95.71324307 210.07264209 95.79148203 222.24948603 95.88073611 234.42635071 C95.94919252 243.8755779 96.00595894 253.32483077 96.05390286 262.77418411 C96.08273425 268.40420672 96.11650286 274.03409499 96.16255951 279.66400528 C96.20548326 284.94843125 96.23387968 290.23273924 96.25121498 295.51730919 C96.26004202 297.45187051 96.27404589 299.38641643 96.29369926 301.32089806 C96.319791 303.96841046 96.32693437 306.61534475 96.32952881 309.26296997 C96.34147616 310.02143852 96.35342351 310.77990708 96.36573291 311.56135952 C96.33801264 317.98891116 95.26676288 324.50327567 90.84375 329.375 C89.68359375 330.179375 89.68359375 330.179375 88.5 331 C87.33984375 331.8353125 87.33984375 331.8353125 86.15625 332.6875 C81.82603648 335.32328214 77.66370948 335.21640199 72.75 335.25 C71.64205078 335.2809375 71.64205078 335.2809375 70.51171875 335.3125 C63.4795886 335.36210938 57.69089028 333.41599249 52.28515625 328.64453125 C46.50828265 321.25224011 45.99065455 307.94952962 47 299 C48.29653537 295.84775997 49.87741647 293.56129177 53 292 C54.56134288 291.89724252 56.12421583 291.81703209 57.6875 291.75 C62.95677777 291.24056045 66.36879039 289.90090157 70 286 C73.35852573 281.24624102 74.85311347 276.8651551 74 271 C71.70959429 265.19437269 68.11563878 261.81745596 62.75 258.6875 C57.33611675 257.33402919 52.61820503 258.1756314 47.6875 260.6875 C43.90346559 263.94352961 41.57782094 267.26653719 40 272 C39.92264514 274.31205076 39.86262263 276.62469862 39.8125 278.9375 C38.93479834 295.40183584 27.68084311 306.09044827 16.0625 316.5625 C14.71360237 317.71453149 13.36021136 318.86134884 12 320 C10.63875 321.2065625 10.63875 321.2065625 9.25 322.4375 C6.79422471 324.14289951 4.94967612 324.66289416 2 325 C2 325.66 2 326.32 2 327 C-20.74126229 338.55030252 -41.8172706 342.54032089 -67.125 342.625 C-68.57058792 342.63589157 -68.57058792 342.63589157 -70.04537964 342.64700317 C-82.35110944 342.69613229 -93.20550225 341.58164677 -105 338 C-107.18713755 337.41530917 -109.37458025 336.83175698 -111.5625 336.25 C-122.19790803 332.89005766 -132.52208857 327.24922862 -141 320 C-142.19689453 319.00033203 -142.19689453 319.00033203 -143.41796875 317.98046875 C-149.30056115 312.89883446 -154.62853689 307.45950833 -159 301 C-159 300.34 -159 299.68 -159 299 C-159.66 299 -160.32 299 -161 299 C-174.16934976 275.30824175 -178.79581707 249.49110173 -172 223 C-171.7834375 222.10023438 -171.566875 221.20046875 -171.34375 220.2734375 C-168.2343608 208.61322798 -162.00474099 197.98055703 -154 189 C-153.01 188.67 -152.02 188.34 -151 188 C-150.54947266 187.09701172 -150.54947266 187.09701172 -150.08984375 186.17578125 C-143.02172549 172.06487848 -118.51632723 163.85200072 -104.48461914 159.18383789 C-88.85071751 154.2810128 -72.40774476 151.99310121 -56.26953125 149.3828125 C-49.82247402 148.33409119 -43.47860613 147.07210628 -37.10546875 145.640625 C-33.97139874 144.99409987 -30.86028642 144.5383425 -27.6875 144.125 C-19.75802383 143.06654051 -11.95978141 141.42672433 -4.12548828 139.82128906 C1.38507526 138.69899847 6.86831108 137.65548016 12.4375 136.875 C21.47737333 135.54382722 30.13275075 133.42324606 37 127 C41.73479086 118.28197238 39.1600773 104.91900855 37.10546875 95.70703125 C34.3449291 86.4499566 29.74602168 78.23673946 23.48046875 70.8671875 C22 69 22 69 20.921875 66.82421875 C19.71264468 64.43137741 18.39867992 64.09030905 16 63 C15.39671875 62.33484375 15.39671875 62.33484375 14.78125 61.65625 C-0.07238438 47.84497592 -22.35208865 47.15135728 -41.2645874 47.64833069 C-54.03713623 48.16855276 -64.83943053 53.40120955 -75 61 C-75.99580078 61.74056641 -75.99580078 61.74056641 -77.01171875 62.49609375 C-81.4991505 66.08798597 -84.7331544 70.30445392 -88 75 C-88.49371094 75.64324219 -88.98742187 76.28648437 -89.49609375 76.94921875 C-95.72083253 85.43749891 -99.11136637 95.81607349 -101.4375 106 C-102.99116048 112.13141009 -106.53975662 116.62593167 -111.7421875 120.1953125 C-115.02999643 121.36709215 -118.24003289 121.33907309 -121.6875 121.3125 C-122.42919434 121.30831055 -123.17088867 121.30412109 -123.93505859 121.29980469 C-129.40474023 121.19153977 -134.73094442 120.65210207 -140.125 119.75 C-140.81037842 119.64083252 -141.49575684 119.53166504 -142.2019043 119.41918945 C-148.80909178 118.18514648 -154.52818664 115.60547465 -158.4375 109.9375 C-162.03510809 103.98017047 -162.12451053 98.77704691 -160.54736328 92.07714844 C-158.50086624 84.34348576 -155.83626316 77.03314913 -152 70 C-151.54625 68.88625 -151.0925 67.7725 -150.625 66.625 C-143.19087188 50.04117572 -130.09882846 35.32726389 -116 24 C-115.34 24 -114.68 24 -114 24 C-114 23.34 -114 22.68 -114 22 C-112.02 21.34 -110.04 20.68 -108 20 C-108 19.34 -108 18.68 -108 18 C-75.601452 -1.15814271 -37.13927245 -9.22542695 0 0 Z M36.125 155.6875 C31.91828386 160.17845371 31.98227374 165.4663712 31.6796875 171.37890625 C30.87807969 175.64954097 29.26508093 178.22347705 26 181 C23.24884506 181.96333345 21.05354058 182.54106947 18.2265625 182.9765625 C17.47490814 183.11259888 16.72325378 183.24863525 15.94882202 183.38879395 C13.51099786 183.82428193 11.06884599 184.22482797 8.625 184.625 C6.93060176 184.92080131 5.23659088 185.21882987 3.54296875 185.51904297 C-0.57934211 186.24471823 -4.70556064 186.94410245 -8.8338623 187.63476562 C-11.73873111 188.1245581 -14.63908407 188.6383632 -17.5390625 189.15625 C-24.18045334 190.33835402 -30.83033873 191.46764977 -37.48291016 192.58496094 C-45.99602381 194.01590518 -54.50260123 195.47834324 -63 197 C-63.92844727 197.16467773 -64.85689453 197.32935547 -65.81347656 197.49902344 C-82.94896443 200.61756355 -97.15165646 206.67240683 -108 221 C-115.57878202 232.07267007 -115.72724706 245.04212205 -114 258 C-112.31795635 264.8479914 -108.41595643 270.53183594 -103 275 C-102.154375 275.804375 -101.30875 276.60875 -100.4375 277.4375 C-87.10881277 288.18862939 -67.43168802 291.52862253 -50.63745117 289.74975586 C-48.25122295 289.40978448 -45.87633846 289.02816346 -43.5 288.625 C-42.70980469 288.49867188 -41.91960937 288.37234375 -41.10546875 288.2421875 C-24.12338432 285.46279561 -9.22778337 280.33810003 4 269 C4.680625 268.67 5.36125 268.34 6.0625 268 C10.7180296 265.59714601 13.80132491 261.02413962 17 257 C18.33333333 255.66666667 19.66666667 254.33333333 21 253 C27.69641093 245.61677769 31.49328998 237.25045918 35 228 C35.2784375 227.35546875 35.556875 226.7109375 35.84375 226.046875 C39.92592236 216.33130478 40.22421882 205.5163571 40.75390625 195.1171875 C41 192 41 192 42 189 C44.84223983 187.16609359 47.50035561 186.66215376 50.8125 186.1875 C56.97027223 185.02497073 60.88576407 182.53708312 64.875 177.75 C66.90058771 172.79856339 67.83771759 168.52797964 66.1171875 163.3359375 C63.90061854 158.61004519 61.75095795 154.48345529 57 152 C49.44290087 150.0708365 42.302446 150.72256923 36.125 155.6875 Z " fill="#9FF4A3" transform="translate(591,89)"/>
<path d="M0 0 C1.37203948 0.30628822 2.74444529 0.6109394 4.1171875 0.9140625 C33.94356316 7.71207685 60.96153455 24.92489168 77.59375 50.96875 C94.41423568 78.2519501 95.61460622 105.38271503 95.60750484 136.58368444 C95.61069347 141.2230152 95.63646356 145.8622283 95.65948486 150.50149536 C95.69984178 159.30819477 95.72031574 168.1148211 95.73345876 176.92159855 C95.74914708 186.76465083 95.78766364 196.60757035 95.82796192 206.4505477 C95.878295 218.77274552 95.92437034 231.09487595 95.93859863 243.41717529 C95.94021146 244.77286798 95.94021146 244.77286798 95.94185686 246.1559484 C95.95022511 253.307491 95.95022511 253.307491 95.95393848 256.83181143 C95.96701231 267.86500946 96.04238174 278.89453264 96.18945312 289.92675781 C96.22502269 293.27426814 96.25847675 296.62179005 96.2907486 299.96933365 C96.32663084 302.88634631 96.38882592 305.80195804 96.45233154 308.71847534 C96.46873393 310.41793468 96.48375619 312.11740819 96.49707031 313.81689453 C96.52207863 314.54535709 96.54708694 315.27381966 96.57285309 316.02435684 C96.56934532 321.76357134 94.52289153 325.64462835 91 330 C83.12326956 336.26923443 73.65447801 335.86256629 64 335 C58.41054687 333.64941889 54.92397844 330.33967346 51.2265625 326.07421875 C47.66058258 320.04385143 47.66257274 313.59770139 47.6875 306.8125 C47.67138672 305.92369141 47.65527344 305.03488281 47.63867188 304.11914062 C47.63596627 300.51797541 47.65830131 297.75381501 49.15625 294.44921875 C51.67219211 292.47164561 53.6457466 292.31866701 56.8125 292 C62.06884812 291.29534464 64.89157738 290.26566926 69 287 C69.99 286.67 70.98 286.34 72 286 C74.54370168 279.00482037 74.68046283 272.06848895 71.8125 265.125 C68.33936231 261.05304547 64.83249594 258.89743973 59.5625 258.0625 C53.64864932 257.65499096 49.68351186 259.57836776 45.1875 263.375 C41.25587135 268.09295438 40.68285944 272.72361628 40.125 278.6875 C38.63662467 291.61849314 34.2601139 298.71134954 25 308 C24.16726563 308.84046875 23.33453125 309.6809375 22.4765625 310.546875 C15.51409524 317.4434514 8.66496117 323.35294987 0 328 C-0.67804688 328.36738281 -1.35609375 328.73476563 -2.0546875 329.11328125 C-4.01431336 330.13244409 -5.99289114 331.07813023 -8 332 C-8.66515625 332.31582031 -9.3303125 332.63164062 -10.015625 332.95703125 C-23.47443653 338.86290834 -38.94201494 342.07584099 -53.5859375 342.30859375 C-54.51196274 342.32394669 -55.43798798 342.33929962 -56.39207458 342.3551178 C-82.8066687 342.71169308 -105.70323775 341.69615589 -129 328 C-130.04671875 327.38769531 -131.0934375 326.77539062 -132.171875 326.14453125 C-137.53142864 322.86361531 -142.41635698 319.29641735 -147 315 C-147.928125 314.154375 -148.85625 313.30875 -149.8125 312.4375 C-152.01267592 309.9858754 -152.82464277 308.02234718 -154 305 C-154.99 304.67 -155.98 304.34 -157 304 C-158.57523901 301.83667175 -159.95836784 299.73416092 -161.3125 297.4375 C-161.70767822 296.76855713 -162.10285645 296.09961426 -162.51000977 295.41040039 C-175.13617471 273.35375567 -177.91823387 245.67108958 -171.6171875 221.04248047 C-169.40725393 213.72906898 -166.23692226 206.35538339 -162 200 C-161.34 200 -160.68 200 -160 200 C-159.855625 199.38125 -159.71125 198.7625 -159.5625 198.125 C-159 196 -159 196 -158 194 C-157.34 194 -156.68 194 -156 194 C-155.773125 193.443125 -155.54625 192.88625 -155.3125 192.3125 C-153.6296426 189.34746553 -151.46378626 187.34646311 -149 185 C-148.401875 184.360625 -147.80375 183.72125 -147.1875 183.0625 C-123.53160835 160.75837358 -90.7491676 154.71641731 -59.82055664 150.09301758 C-53.52812706 149.13619121 -47.33764056 147.83858532 -41.12133789 146.48022461 C-34.84659441 145.12904899 -28.55440085 144.09907494 -22.20849609 143.14672852 C-15.45014333 142.11507314 -8.76827187 140.79407229 -2.07421875 139.41015625 C2.5848963 138.4548172 7.22222029 137.64118725 11.9375 137 C21.24223578 135.610876 31.93908106 133.92581708 38 126 C43.27494426 115.34282448 39.17379694 102.73490141 36 92 C35.773125 91.2059375 35.54625 90.411875 35.3125 89.59375 C29.89169969 73.06030905 16.13582418 60.90436863 1.16992188 53.03808594 C-14.60767525 45.68034656 -37.0321659 44.76612229 -53.66333008 49.80273438 C-73.52853248 57.03574126 -86.87028945 71.06135617 -96.00390625 89.7421875 C-98.73785843 95.93914577 -100.52858274 102.52739416 -102.34912109 109.03979492 C-104.07053817 114.22406262 -106.60954338 116.68475724 -111 120 C-122.73942077 123.91314026 -140.51197677 121.1052835 -151.6875 116.25 C-155.6633091 113.85217278 -158.41024149 111.44409766 -160 107 C-162.91221523 89.38109785 -154.67720241 71.49801005 -144.875 57.25 C-143.30314335 54.94033308 -141.79715281 52.65672014 -140.375 50.25 C-135.25124089 41.86566692 -127.23773947 32.39713965 -119 27 C-118.34 27 -117.68 27 -117 27 C-116.76539063 26.40703125 -116.53078125 25.8140625 -116.2890625 25.203125 C-111.37758834 16.80896917 -96.63863414 12.10041751 -88 8 C-87.02546875 7.52433594 -86.0509375 7.04867187 -85.046875 6.55859375 C-59.56042579 -5.05594525 -26.99345249 -6.59339027 0 0 Z M35 158 C31.59123025 162.86967107 31.27079619 168.20475907 30.625 173.9765625 C29.92746359 177.3508949 29.44082935 178.59430589 27 181 C24.32407765 181.79453472 21.90299877 182.34204769 19.16796875 182.78125 C18.38832764 182.92016159 17.60868652 183.05907318 16.80541992 183.20219421 C14.26857706 183.65052046 11.72840321 184.07534986 9.1875 184.5 C7.43697822 184.80480628 5.68673356 185.11120828 3.93676758 185.41918945 C0.496926 186.02261873 -2.944162 186.61783014 -6.38671875 187.20556641 C-11.02051807 187.99900102 -15.64318215 188.84585962 -20.26416016 189.71069336 C-27.57220297 191.07806332 -34.89175998 192.30873568 -42.23974609 193.44189453 C-77.55990269 197.99876523 -77.55990269 197.99876523 -105.73828125 218.0859375 C-113.00707943 228.07828041 -116.40017549 241.03246387 -114.48828125 253.27734375 C-111.49116045 266.10628938 -105.34582667 274.30275515 -94.390625 281.53515625 C-84.88348446 287.36061001 -73.04959526 289.32650086 -62 290 C-61.33355469 290.04125 -60.66710938 290.0825 -59.98046875 290.125 C-32.39210745 290.9439495 -6.49692277 279.97999972 13.61328125 261.61328125 C32.43980526 243.41526031 41.21324223 219.75238059 41.76171875 193.80078125 C42 191 42 191 44 188 C46.609375 187.19140625 46.609375 187.19140625 49.75 186.5625 C55.86970706 185.14969682 59.68204308 183.13001446 64.3125 178.875 C67.38591553 173.63881057 67.26404207 168.22549742 66.5625 162.3125 C64.34506902 157.61154632 61.43628884 154.69671667 57 152 C48.54324224 149.29209983 41.1824612 151.8175388 35 158 Z " fill="#9FF4A3" transform="translate(1706,89)"/>
<path d="M0 0 C2.26787718 -0.0118547 4.53299301 -0.06101794 6.80029297 -0.11157227 C14.52788348 -0.20004065 21.16748716 -0.2540799 27.03857422 5.42553711 C30.89138142 9.29149382 32.55793521 13.64712771 34.41357422 18.67553711 C34.71320068 19.46694092 35.01282715 20.25834473 35.3215332 21.07373047 C38.09191587 28.44067936 40.71563774 35.8593847 43.29589844 43.29467773 C44.05812421 45.48162927 44.8299872 47.66495427 45.60498047 49.84741211 C47.87128181 56.23047456 50.11765923 62.61305713 52.22607422 69.05053711 C53.24121987 72.13372742 54.28903207 75.14403451 55.60107422 78.11303711 C57.01514934 81.37155803 58.13419397 84.62698686 59.23388672 87.99975586 C61.32650317 94.30808021 63.69411756 100.52113227 66.05297852 106.73364258 C69.93213575 116.97420568 73.50657331 127.31551833 77.08349609 137.66479492 C81.87962068 151.5591945 81.87962068 151.5591945 87.18310547 165.26538086 C88.27930974 168.03342178 89.20307336 170.84149876 90.12451172 173.67163086 C91.38827148 177.47911221 92.71055119 181.26506229 94.03857422 185.05053711 C94.28784668 185.76733643 94.53711914 186.48413574 94.79394531 187.22265625 C95.97414558 190.57790756 97.20484687 193.87794915 98.63232422 197.13647461 C99.81367232 199.89951656 100.74037878 202.53682982 101.53857422 205.42553711 C102.39675138 208.39339979 103.31625577 211.07346073 104.53857422 213.92553711 C105.71467307 216.66976776 106.59737472 219.19842426 107.41357422 222.05053711 C108.94046692 227.34593093 110.91756975 232.42422283 112.95263672 237.54272461 C114.95445913 242.85691503 115.76763558 247.75068108 115.03857422 253.42553711 C113.12664181 256.9856871 110.94512772 259.65739091 108.03857422 262.42553711 C105.82772874 266.84722806 106.62820424 272.61248355 107.03857422 277.42553711 C108.99667138 281.88999864 111.59534639 284.48604631 115.97998047 286.73022461 C120.48941305 288.25333466 125.5739259 288.59966115 129.94091797 286.51928711 C131.35315004 285.55247787 132.70214296 284.49468211 134.03857422 283.42553711 C134.69857422 283.42553711 135.35857422 283.42553711 136.03857422 283.42553711 C139.16954983 276.26902144 141.02321157 271.03024607 138.17138672 263.60522461 C136.61916581 260.61853747 134.654081 258.26722708 132.34326172 255.83569336 C129.41892695 252.67496027 129.65155047 249.44729607 129.68701172 245.32788086 C130.20770619 241.02925875 131.88740904 237.49356068 133.67138672 233.57788086 C135.50095998 229.35940765 136.76824686 225.03994127 138.04638672 220.62866211 C138.99842086 217.55516605 140.08570634 214.57718432 141.23095703 211.57250977 C142.67418233 207.73583405 144.00470066 203.85952628 145.35107422 199.98803711 C145.96944382 198.21716187 146.58793549 196.44632926 147.20654297 194.67553711 C148.0931181 192.13529248 148.97949916 189.59498097 149.86523438 187.05444336 C152.71005978 178.90316214 155.62287281 170.79442331 158.74951172 162.74584961 C163.99424372 149.27868959 163.99424372 149.27868959 168.39404297 135.51928711 C169.35978982 132.38207309 170.7268216 129.43163685 172.03857422 126.42553711 C172.50630429 125.08549385 172.95825052 123.73988166 173.39794922 122.39038086 C175.14337967 117.0922901 176.95826325 111.81984479 178.78857422 106.55053711 C179.13855469 105.54240967 179.48853516 104.53428223 179.84912109 103.49560547 C182.27534822 96.53775206 184.80284151 89.62398776 187.38647461 82.72338867 C190.19593486 75.14527083 192.71925736 67.47492203 195.19873047 59.78320312 C196.92763648 54.48530286 198.8551157 49.41346646 201.18383789 44.35083008 C202.2065217 42.04723552 202.94564543 39.73263134 203.60107422 37.30053711 C204.7757156 33.17341874 206.34707413 29.37237065 208.03857422 25.42553711 C208.51028509 23.80436985 208.96763115 22.17898091 209.41357422 20.55053711 C211.83258897 12.429559 214.87613818 6.31048635 222.16259766 1.66040039 C227.41529685 -0.5949606 232.9006956 -0.42211071 238.52270508 -0.30175781 C240.60234293 -0.2619386 242.67562138 -0.28113618 244.75537109 -0.30688477 C252.22353638 -0.30308335 258.42379555 0.07590077 264.03857422 5.42553711 C268.72043848 10.80092847 270.47546835 15.48651609 270.37451172 22.52319336 C269.8006903 27.48074356 267.82536549 31.79822254 265.890625 36.36450195 C264.15786387 40.5558972 262.58211457 44.80938298 260.97607422 49.05053711 C260.62697998 49.96536865 260.27788574 50.8802002 259.91821289 51.82275391 C258.17980412 56.3824131 256.4773384 60.94939943 254.85107422 65.55053711 C253.2685296 69.98306251 251.34822034 74.20085244 249.28466797 78.42944336 C248.21299723 81.00615638 247.40335172 83.4817553 246.62841797 86.15600586 C245.12478346 91.30975025 243.21173148 96.21745908 241.16357422 101.17553711 C238.37564466 108.02906524 235.7548081 114.89455969 233.31201172 121.87866211 C231.53552302 126.82667358 229.6140997 131.71436838 227.69677734 136.60913086 C224.98980325 143.5263011 222.37431734 150.47526978 219.78125 157.43579102 C219.01468184 159.48954858 218.24403214 161.54173317 217.47216797 163.59350586 C214.27661322 172.08801017 214.27661322 172.08801017 211.16357422 180.61303711 C208.84948891 187.02052543 206.39620018 193.37506014 203.96313477 199.73803711 C202.26526613 204.18428849 200.58086739 208.63212111 198.97607422 213.11303711 C197.3246388 217.70676794 195.56406727 222.25373311 193.78857422 226.80053711 C188.00812231 241.60597292 182.32862273 256.43706634 177.03857422 271.42553711 C175.23874836 276.50030385 173.1843028 281.42311653 171.03857422 286.36303711 C169.02262869 291.02211121 167.20708064 295.64484127 165.68310547 300.48413086 C164.66698578 303.54480651 163.30839497 306.46262202 162.03857422 309.42553711 C161.61906698 310.88305586 161.20257292 312.34144414 160.78857422 313.80053711 C159.03877348 319.09527094 156.23739143 323.72463274 152.03857422 327.42553711 C145.82683488 330.2551516 140.68979773 330.86989781 133.91357422 330.82397461 C132.96724121 330.82684479 132.0209082 330.82971497 131.04589844 330.83267212 C129.05582069 330.83470306 127.06572254 330.82924149 125.07568359 330.81665039 C122.04723033 330.80058303 119.02011148 330.81653241 115.99169922 330.83569336 C114.04898797 330.83371076 112.10627754 330.82986673 110.16357422 330.82397461 C109.26751465 330.8300473 108.37145508 330.83612 107.44824219 330.84237671 C101.07435891 330.77183791 95.41477287 329.89408154 90.12060547 326.02319336 C84.34394026 319.03787205 81.64568321 310.50390063 78.91748047 301.97631836 C77.7336999 298.5407241 76.3912684 295.17216551 75.03857422 291.80053711 C74.78922119 291.17880615 74.53986816 290.5570752 74.28295898 289.91650391 C73.07741163 286.93248755 71.83819067 283.97154313 70.53857422 281.02709961 C69.43676165 278.38160173 68.48029761 275.82098963 67.59716797 273.10522461 C65.98720381 268.15906275 64.06481965 263.36515043 62.10107422 258.55053711 C59.58836976 252.33495981 57.1450442 246.11412158 54.89794922 239.79663086 C53.1077211 234.85722873 51.08847272 230.00616999 49.10888672 225.14038086 C45.66584698 216.61814613 42.48043965 207.99846059 39.27978516 199.38305664 C36.37623803 191.56770718 33.40815099 183.78889763 30.28417969 176.05883789 C28.50676139 171.64351429 26.81725448 167.20102832 25.16357422 162.73803711 C22.53922172 155.66304879 19.75345661 148.65849166 16.93847656 141.6574707 C13.56255103 133.25751721 10.26417994 124.83666769 7.20263672 116.31616211 C4.99545516 110.23254087 2.59123319 104.23638557 0.16357422 98.23803711 C-2.95649555 90.48807595 -6.02382155 82.72836111 -8.91625977 74.890625 C-10.49770544 70.61764277 -12.17806919 66.39411993 -13.89892578 62.17553711 C-16.64594709 55.38368916 -19.08137098 48.5057444 -21.42602539 41.56518555 C-22.81745649 37.49266409 -24.31675618 33.57352474 -26.13720703 29.67163086 C-28.4882362 24.48893783 -28.92407148 20.05203522 -27.96142578 14.42553711 C-25.53939821 8.48958428 -21.62368707 4.75640283 -16.26708984 1.34716797 C-11.23923541 -0.6625896 -5.36522645 0.01327169 0 0 Z " fill="#9FF4A3" transform="translate(749.96142578125,91.574462890625)"/>
<path d="M0 0 C3.84398643 3.55012796 6.88309065 6.87241101 7.17700195 12.22119141 C7.20399002 13.59786878 7.22392155 14.9746955 7.23828125 16.3515625 C7.246353 17.08442474 7.25442474 17.81728699 7.26274109 18.57235718 C7.27658389 20.12747839 7.28730518 21.68263001 7.29516602 23.23779297 C7.31228457 25.59533103 7.35615367 27.9514314 7.40039062 30.30859375 C7.49396868 39.22968164 7.41851926 46.08742689 1.1484375 53.05859375 C0.56320312 53.51363281 -0.02203125 53.96867187 -0.625 54.4375 C-1.21539063 54.91058594 -1.80578125 55.38367188 -2.4140625 55.87109375 C-7.94946219 59.81131669 -17.39445526 58.56336637 -23.875 57.55078125 C-25.1434375 57.27814453 -25.1434375 57.27814453 -26.4375 57 C-43.70957146 53.44323269 -61.4155459 56.51572328 -76.31787109 65.85888672 C-80.63363341 68.78658963 -84.33493224 72.31349909 -88 76 C-88.886875 76.804375 -89.77375 77.60875 -90.6875 78.4375 C-113.76871178 104.01397792 -112.59231447 135.83384168 -112.50871015 168.15683913 C-112.50057766 173.25436153 -112.51756893 178.35179693 -112.53245544 183.44929504 C-112.56305903 195.26613144 -112.56478317 207.08288103 -112.56280518 218.89974976 C-112.56140534 233.98056962 -112.57183019 249.06132389 -112.6113829 264.14209539 C-112.62625564 270.18995908 -112.62609401 276.23757452 -112.61390507 282.28544176 C-112.60918073 286.04660347 -112.61673319 289.8076708 -112.62744904 293.56881714 C-112.62984568 295.30458458 -112.62715362 297.04036813 -112.61884117 298.77611732 C-112.52756746 319.05441426 -112.52756746 319.05441426 -118.0625 326.9375 C-127.54646278 333.59645259 -139.86287792 333.00345325 -151 332 C-157.08423668 330.85650871 -160.72352081 328.7966275 -164.5625 323.9375 C-167.26799532 319.94440351 -168.12473682 316.77146089 -168.13422108 311.96799183 C-168.13867892 310.9219336 -168.14313676 309.87587537 -168.14772969 308.79811841 C-168.14754533 307.64502941 -168.14736097 306.4919404 -168.14717102 305.3039093 C-168.15084771 304.08192485 -168.1545244 302.85994039 -168.1583125 301.6009261 C-168.16744212 298.20266339 -168.17204964 294.80444898 -168.17470181 291.40617859 C-168.17860422 287.74345977 -168.18818261 284.08075494 -168.19691467 280.41804504 C-168.216681 271.56935075 -168.22674556 262.72065531 -168.23564246 253.87194446 C-168.24002514 249.70538701 -168.24539201 245.53883084 -168.25063133 241.3722744 C-168.26764388 227.52241053 -168.28213815 213.67254746 -168.28938007 199.82267475 C-168.29128998 196.2282187 -168.29321031 192.63376266 -168.29516602 189.03930664 C-168.29564976 188.1459172 -168.2961335 187.25252775 -168.2966319 186.3320659 C-168.30493256 171.85906884 -168.33026998 157.38615442 -168.36274669 142.91319344 C-168.39581469 128.05565513 -168.4138286 113.19815881 -168.41702431 98.3405835 C-168.41918967 89.99797739 -168.42794196 81.65549178 -168.45348549 73.31292152 C-168.47518897 66.20808557 -168.48324468 59.1033994 -168.47351871 51.99853406 C-168.46897292 48.37420312 -168.470876 44.75018123 -168.49028015 41.12589264 C-168.51114842 37.19413641 -168.50092986 33.2628062 -168.48774719 29.33100891 C-168.49871644 28.18907351 -168.50968568 27.04713812 -168.52098733 25.87059861 C-168.45940087 18.2692878 -167.39530776 12.77495188 -162.1484375 6.94140625 C-161.56320312 6.48636719 -160.97796875 6.03132813 -160.375 5.5625 C-159.78460937 5.08941406 -159.19421875 4.61632812 -158.5859375 4.12890625 C-154.10111452 0.93650762 -149.00521462 1.77592426 -143.6875 1.75 C-142.64142578 1.729375 -141.59535156 1.70875 -140.51757812 1.6875 C-139.50501953 1.68234375 -138.49246094 1.6771875 -137.44921875 1.671875 C-136.06222778 1.65785645 -136.06222778 1.65785645 -134.6472168 1.64355469 C-131.46850899 2.07156478 -129.62987747 3.20161368 -127 5 C-126.13375 5.5775 -125.2675 6.155 -124.375 6.75 C-119.27179151 11.58461857 -118.37161726 17.51843006 -117.9453125 24.29296875 C-118.07069042 30.49917572 -120.12223678 34.37466124 -124.5 38.6875 C-125.11101562 39.25855469 -125.72203125 39.82960937 -126.3515625 40.41796875 C-130.48179942 44.38182172 -131.80774809 48.32856851 -132 54 C-131.26979117 56.80526272 -130.19912358 59.36651807 -129 62 C-128.71125 62.78375 -128.4225 63.5675 -128.125 64.375 C-126.52009672 66.69319363 -124.6183475 67.1272175 -122 68 C-121.67 68.33 -121.34 68.66 -121 69 C-114.96093346 69.76333801 -109.53731015 70.01908076 -104.4375 66.375 C-100.00435921 62.42111767 -97.90410023 58.6499767 -97.5625 52.6875 C-97.68864987 48.264834 -99.17547203 45.11883284 -101.09765625 41.19921875 C-102.59217569 37.55673198 -102.45619615 34.91025275 -102 31 C-100.02317452 27.1818324 -97.5198317 24.16159094 -94.625 21 C-93.87476563 20.175 -93.12453125 19.35 -92.3515625 18.5 C-71.82944024 -3.31753862 -27.49466398 -17.98151024 0 0 Z " fill="#9FF4A3" transform="translate(2041,96)"/>
<path d="M0 0 C2.07876006 0.02459927 4.14819353 -0.02016712 6.22631836 -0.07104492 C13.66178672 -0.12617196 19.06533658 0.67473983 24.93164062 5.45556641 C30.77302854 13.5692983 30.07403717 23.18192372 30.03392029 32.70275879 C30.03809689 34.31691276 30.04357619 35.93106379 30.0502401 37.54520941 C30.06467042 41.96557396 30.06045756 46.38575168 30.05307329 50.80612636 C30.04833801 55.57920876 30.06085457 60.35225096 30.0710907 65.12532043 C30.08827628 74.46976689 30.0891193 83.8141461 30.08387779 93.15860426 C30.07983484 100.7536669 30.08128114 108.34870967 30.08662605 115.94377136 C30.08737447 117.02511969 30.0881229 118.10646802 30.088894 119.22058448 C30.09042549 121.4173861 30.09196383 123.61418771 30.09350897 125.81098932 C30.10723284 146.40593912 30.10179684 167.00085093 30.09032375 187.59579986 C30.08038888 206.43587673 30.09333666 225.27585542 30.11725795 244.11591715 C30.14164089 263.46545809 30.15125895 282.81495329 30.14460522 302.1645093 C30.14111155 313.02605832 30.14335498 323.88753181 30.16085625 334.74906921 C30.17556803 343.99397422 30.17622689 353.23875049 30.15878534 362.48365295 C30.15026506 367.19973167 30.14815098 371.91558031 30.16343689 376.63164711 C30.17726298 380.95079686 30.17254768 385.26951897 30.15319765 389.58864385 C30.14943099 391.14908866 30.15237884 392.70956755 30.1628093 394.26998204 C30.25978899 409.89204012 30.25978899 409.89204012 25.64624023 416.8371582 C18.88436632 423.59903211 11.42461195 423.23120615 2.39624023 423.2746582 C1.20643555 423.3075293 0.01663086 423.34040039 -1.20922852 423.37426758 C-8.73981662 423.42003358 -14.54320769 422.90100808 -20.35375977 417.8371582 C-26.29776173 409.97452566 -26.05957556 401.25401951 -25.98194885 391.85803223 C-25.9869998 390.24372365 -25.99423285 388.6294207 -26.003447 387.01513052 C-26.02231843 382.59882464 -26.01016453 378.18307501 -25.99272406 373.76678348 C-25.97932572 368.99641463 -25.994796 364.22612586 -26.00654602 359.45576477 C-26.02490855 350.11841903 -26.01641953 340.7812828 -25.9984578 331.44394362 C-25.98442238 323.8541495 -25.98054103 316.26441218 -25.98390007 308.67460632 C-25.98437751 307.59368221 -25.98485495 306.51275809 -25.98534686 305.3990787 C-25.98637321 303.20308434 -25.98742857 301.00708999 -25.98851263 298.81109565 C-25.99707689 279.40030771 -25.98041356 259.98962079 -25.95068359 240.57885742 C-25.9218469 221.75101477 -25.91476303 202.92331766 -25.93017578 184.09545898 C-25.94694324 163.58469199 -25.95096657 143.07399407 -25.93346542 122.56322527 C-25.93162107 120.37538688 -25.92978634 118.18754849 -25.92796135 115.99971008 C-25.92704926 114.92329997 -25.92613717 113.84688985 -25.92519744 112.73786125 C-25.91959544 105.15869963 -25.9228961 97.57957177 -25.9295063 90.00041199 C-25.93724407 80.76176787 -25.93047084 71.52326693 -25.90533126 62.28465164 C-25.8928466 57.5725018 -25.88667722 52.86057475 -25.89787292 48.14841652 C-25.9079353 43.83170655 -25.89941327 39.51544028 -25.87629174 35.19878417 C-25.87114505 33.6403765 -25.87267152 32.08192887 -25.8816864 30.52353877 C-25.93044277 21.32739278 -25.90362728 12.26603557 -19.70722586 4.87252283 C-14.2935129 -0.44525062 -7.13797795 -0.11025529 0 0 Z " fill="#9FF4A3" transform="translate(1446.353759765625,-0.837158203125)"/>
</svg>
